# xmcd
#
# Track frame offsets:
#	150
#	10652
#	25052
#	36774
#	57182
#	71049
#	109812
#	126232
#	143494
#	164297
#	176595
#	198810
#	213762
#	228962
#	242957
#	266594
#	280239
#	318949
#
# Disc length: 4416 seconds
#
# Revision: 0
# Processed by: cddbd v1.5.1PL0 Copyright (c) Steve Scherf et al.
# Submitted via: audiograbber 1.83.01
#
DISCID=f4113e12
DTITLE=Creedence Clearwater Revival - Collection I
DYEAR=1900
DGENRE=
TTITLE0=Bad Moon Rising
TTITLE1=Lodi
TTITLE2=Green River
TTITLE3=I Put a Spell On You
TTITLE4=The Working Man
TTITLE5=Suise Q
TTITLE6=99 1/2 (Won't Do)
TTITLE7=Gloomy
TTITLE8=Walk On The Water
TTITLE9=Commotion
TTITLE10=Wrote a Song For Everyone
TTITLE11=Cross-Tie Walker
TTITLE12=Sinister Purpose
TTITLE13=The Night Time Is The Right Time
TTITLE14=Born On The Bayou
TTITLE15=Bootleg
TTITLE16=Graveyard Train
TTITLE17=Good Golly Miss Molly
EXTD=
EXTT0=
EXTT1=
EXTT2=
EXTT3=
EXTT4=
EXTT5=
EXTT6=
EXTT7=
EXTT8=
EXTT9=
EXTT10=
EXTT11=
EXTT12=
EXTT13=
EXTT14=
EXTT15=
EXTT16=
EXTT17=
PLAYORDER=
